<svg xmlns="http://www.w3.org/2000/svg" xmlns:xlink="http://www.w3.org/1999/xlink" viewBox="0 0 101 41"><defs><path id="a" d="M0 .056V33h21.099V.056z"/><path id="c" d="M11.108 30.985V.469H.008v30.516h11.1z"/></defs><g fill="none" fill-rule="evenodd"><g transform="translate(0 8)"><mask id="b" fill="#fff"><use xlink:href="#a"/></mask><path d="M21.099 21.915C21.054 28.798 18.359 33 10.64 33c-4.704 0-9.362-2.056-9.773-6.973h2.876c.64 3.397 3.7 4.604 6.897 4.604 5.297 0 7.58-3.084 7.58-8.716v-3.13h-.09c-1.325 2.817-4.11 4.739-7.49 4.739C3.105 23.524 0 18.249 0 11.678 0 5.332 3.836.056 10.64.056c3.426 0 6.348 2.101 7.491 4.649h.09V.727H21.1v21.188zM18.22 11.99c0-4.514-2.145-9.565-7.58-9.565-5.48 0-7.764 4.782-7.764 9.565 0 4.649 2.466 9.164 7.764 9.164 4.977 0 7.58-4.47 7.58-9.164z" fill="#5C5B5A" mask="url(#b)"/></g><path d="M24 0h2.857v12.863h.09c1.044-2.78 4.172-4.661 7.482-4.661 6.575 0 8.571 3.406 8.571 8.918V32h-2.857V17.569c0-3.989-1.315-6.992-5.94-6.992-4.535 0-7.256 3.407-7.346 7.933V32H24V0zm44 20c0 6.505-3.877 12-11 12-7.124 0-11-5.495-11-12S49.876 8 57 8c7.123 0 11 5.495 11 12m-19.16 0c0 4.835 2.705 9.67 8.16 9.67 5.454 0 8.16-4.835 8.16-9.67s-2.706-9.67-8.16-9.67c-5.455 0-8.16 4.835-8.16 9.67m35.488-4.704c-.136-3.429-2.858-4.967-6.123-4.967-2.54 0-5.533.968-5.533 3.912 0 2.462 2.904 3.341 4.854 3.825l3.809.835C84.599 19.384 88 21.23 88 25.186 88 30.11 82.967 32 78.614 32c-5.441 0-9.161-2.462-9.614-8h2.857c.227 3.736 3.084 5.67 6.892 5.67 2.677 0 6.395-1.143 6.395-4.308 0-2.638-2.54-3.516-5.125-4.132l-3.673-.79c-3.718-.968-6.53-2.2-6.53-6.066 0-4.616 4.67-6.374 8.798-6.374 4.67 0 8.39 2.374 8.57 7.296h-2.856z" fill="#5C5B5A"/><g transform="translate(89 1)"><mask id="d" fill="#fff"><use xlink:href="#c"/></mask><path d="M6.59 7.456h4.518v2.388H6.59v15.687c0 1.848.259 2.93 2.195 3.065.774 0 1.548-.044 2.323-.136v2.435c-.817 0-1.592.09-2.409.09-3.615 0-4.862-1.262-4.82-5.229V9.844H.008V7.456h3.871V.469H6.59v6.987z" fill="#5C5B5A" mask="url(#d)"/></g></g></svg>